# xmcd CD database file
#
# Track frame offsets:
#	150
#	23880
#	42020
#	58290
#	75958
#	100565
#	117940
#	144458
#	176223
#
# Disc length: 2520 seconds
#
# Revision: 2
# Processed by: cddbd v1.5.1PL0 Copyright (c) Steve Scherf et al.
# Submitted via: Feurio! 1.68 - http://www.feurio.com
#
DISCID=6d09d609
DTITLE=Willie Nelson - Willie Nelson Sings Kristofferson
DYEAR=1979
DGENRE=Country
TTITLE0=Me And Bobby McGee
TTITLE1=Help Me Make It Through The Night
TTITLE2=The Pilgrim: Chapter 33
TTITLE3=Why Me
TTITLE4=For The Good Times
TTITLE5=You Show Me Yours (And I'll Show You Mine)
TTITLE6=Loving Her Was Easier (Than Anything I'll Ever Do Again)
TTITLE7=Sunday Mornin' Comin' Down
TTITLE8=Please Don't Tell Me How The Story Ends
EXTD=YEAR:1979
EXTT0=
EXTT1=
EXTT2=
EXTT3=
EXTT4=
EXTT5=
EXTT6=
EXTT7=
EXTT8=
PLAYORDER=
